<?xml version="1.0" encoding="utf-8"?>
<!-- Generator: Adobe Illustrator 16.0.0, SVG Export Plug-In . SVG Version: 6.00 Build 0)  -->
<!DOCTYPE svg PUBLIC "-//W3C//DTD SVG 1.1//EN" "http://www.w3.org/Graphics/SVG/1.1/DTD/svg11.dtd">
<svg version="1.1" id="Layer_1" xmlns="http://www.w3.org/2000/svg" xmlns:xlink="http://www.w3.org/1999/xlink" x="0px" y="0px"
	 width="40px" height="40px" viewBox="0 0 40 40" enable-background="new 0 0 40 40" xml:space="preserve">
<rect fill="#4DC400" width="40" height="40"/>
<path fill="#FFFFFF" d="M18.7,27.4c0.2,0.199,0,0.6-0.4,1L17.6,29.1c-0.4,0.4-0.8,0.602-1,0.4l-8-8c-0.2-0.2,0-0.6,0.4-1l0.7-0.7
	c0.4-0.4,0.8-0.6,1-0.4L18.7,27.4z"/>
<path fill="#FFFFFF" d="M15.3,27.1C15,27.4,15.1,28,15.5,28.4l0.7,0.699c0.4,0.399,1,0.5,1.3,0.199l15.6-15.6
	c0.301-0.3,0.2-0.9-0.199-1.3l-0.699-0.7c-0.4-0.4-1-0.5-1.301-0.2L15.3,27.1z"/>
</svg>
