<?xml version="1.0" encoding="utf-8"?>
<!-- Generator: Adobe Illustrator 16.0.0, SVG Export Plug-In . SVG Version: 6.00 Build 0)  -->
<!DOCTYPE svg PUBLIC "-//W3C//DTD SVG 1.1//EN" "http://www.w3.org/Graphics/SVG/1.1/DTD/svg11.dtd">
<svg version="1.1" id="Layer_1" xmlns="http://www.w3.org/2000/svg" xmlns:xlink="http://www.w3.org/1999/xlink" x="0px" y="0px"
	 width="40px" height="40px" viewBox="0 0 40 40" enable-background="new 0 0 40 40" xml:space="preserve">
<rect fill="#FF0000" width="40" height="40"/>
<path fill="#FFFFFF" d="M10.1,27.8c-0.4,0.3-0.3,1,0.1,1.3l0.7,0.7c0.4,0.4,1,0.4,1.3,0.101L30,12.1c0.4-0.4,0.3-1-0.1-1.3l-0.7-0.7
	c-0.4-0.4-1-0.4-1.3-0.1L10.1,27.8z"/>
<path fill="#FFFFFF" d="M29.9,27.8c0.398,0.3,0.3,1-0.102,1.3L29.1,29.8c-0.399,0.4-1,0.4-1.301,0.101L10.1,12.2
	c-0.4-0.4-0.3-1,0.1-1.3l0.7-0.7c0.4-0.4,1-0.4,1.3-0.1L29.9,27.8z"/>
</svg>
