<?xml version="1.0" encoding="utf-8"?>
<!-- Generator: Adobe Illustrator 16.0.0, SVG Export Plug-In . SVG Version: 6.00 Build 0)  -->
<!DOCTYPE svg PUBLIC "-//W3C//DTD SVG 1.1//EN" "http://www.w3.org/Graphics/SVG/1.1/DTD/svg11.dtd">
<svg version="1.1" id="Layer_1" xmlns="http://www.w3.org/2000/svg" xmlns:xlink="http://www.w3.org/1999/xlink" x="0px" y="0px"
	 width="135.5px" height="135.5px" viewBox="0 0 135.5 135.5" enable-background="new 0 0 135.5 135.5" xml:space="preserve">
<circle fill="#2196F3" cx="67.333" cy="67.75" r="67.25"/>
<path fill="#FFFFFF" d="M65.055,69.569c0.852,0,1.814,0.08,3.029,0.252c5.906,0.836,9.143,3.057,9.355,6.423
	c0.127,2.007-0.928,2.702-1.857,3.315c-1.006,0.662-1.797,1.186-1.383,3.244c0.275,1.365,3.596,2.281,8.265,2.281
	c5.604,0,10.824-1.263,12.138-2.938c3.006-3.823,2.887-18.979,1.407-22.691c-0.2-0.503-0.421-0.792-0.602-0.792
	c-0.372,0-1.007,0.787-1.619,1.546c-1.233,1.533-2.81,3.482-5.001,3.132c-4.34-0.688-4.797-3.25-5.037-7.385l-0.014-0.23
	c-0.24-4.113-0.426-7.361,3.777-8.43c0.322-0.082,0.651-0.124,0.975-0.124c1.449,0,2.625,0.813,3.66,1.53
	c0.771,0.533,1.496,1.036,2.137,1.036c0.381,0,0.977-0.149,1.751-1.436c2.653-4.425,2.987-13.24,0.616-16.263
	c-0.488-0.622-1.98-0.924-4.563-0.924c-1.681,0-3.669,0.127-5.593,0.249c-1.969,0.125-4.004,0.254-5.766,0.254
	c-3.418,0-5.172-0.502-5.683-1.626c-0.793-1.747,0.022-2.724,0.89-3.759c0.957-1.147,2.045-2.448,1.883-5.289
	c-0.223-3.861-3.117-7.789-9.09-7.86h-0.142c-2.63,0-4.933,0.924-6.484,2.602c-1.375,1.488-2.074,3.49-1.917,5.493
	c0.158,2.012,1.152,3.135,2.112,4.22c1.08,1.22,2.101,2.372,1.654,4.519c-0.248,1.194-1.754,1.775-4.603,1.775
	c-5.063,0-13.116-1.875-15.242-2.393c0.528,2.936,2.897,16.599,1.769,19.316c-0.31,0.748-0.832,0.904-1.216,0.904l0,0
	c-1.113,0-2.593-1.327-4.159-2.731c-1.29-1.156-2.752-2.467-3.6-2.533c-2.764-0.215-5.021,2.276-5.828,6.382l-0.098,0.494
	c-0.817,4.127-1.59,8.026,1.903,9.741c0.505,0.248,0.955,0.367,1.378,0.367c0.873,0,1.517-0.527,2.198-1.086
	c0.731-0.6,1.487-1.219,2.566-1.219c0.629,0,1.291,0.213,2.024,0.652c4.275,2.567,0.55,20.176-0.082,23.006
	c1.725,0.317,9.36,1.662,14.9,1.662c4.619,0,5.615-0.938,5.798-1.494c0.532-1.623-0.419-2.826-1.424-4.1
	c-1.083-1.373-2.311-2.928-1.424-5.072C59.982,70.772,61.848,69.569,65.055,69.569z"/>
<g>
	<path fill="#FFFFFF" d="M34.882,97.418c-0.101-0.103-0.101-0.453,0-0.556c0.672,0.017,1.411,0.035,1.848,0.035
		c0.438,0,0.975-0.02,1.461-0.035c0.101,0.103,0.101,0.453,0,0.556c-0.924,0.051-1.228,0.44-1.445,1.024l-3.377,9.057
		c-0.084,0.251-0.201,0.436-0.386,0.436c-0.202,0-0.288-0.166-0.387-0.451l-1.932-5.578c-0.1-0.288-0.168-0.473-0.235-0.473
		c-0.084,0-0.136,0.086-0.286,0.424l-2.503,5.627c-0.125,0.276-0.218,0.451-0.437,0.451c-0.193,0-0.278-0.187-0.37-0.451
		l-3.158-9.09c-0.312-0.896-0.437-0.922-1.193-0.976c-0.101-0.103-0.101-0.452,0-0.556c0.487,0.017,0.979,0.035,1.562,0.035
		c0.656,0,1.395-0.018,1.949-0.035c0.101,0.104,0.101,0.453,0,0.556c-0.588,0.035-1.035,0.117-0.84,0.707l2.457,7.431l0.073,0.016
		l2.175-4.928c0.126-0.283,0.151-0.414,0.151-0.588c0-0.15-0.052-0.318-0.118-0.521l-0.386-1.109
		c-0.151-0.432-0.521-0.957-1.411-1.008c-0.101-0.103-0.101-0.452,0-0.556c0.538,0.017,1.125,0.035,1.68,0.035
		c0.672,0,1.411-0.017,2.1-0.035c0.101,0.104,0.101,0.453,0,0.556c-0.571,0.051-1.167,0.104-0.874,1.008l2.31,7.091l0.054,0.021
		l2.626-7.297C36.249,97.526,35.571,97.469,34.882,97.418z"/>
	<path fill="#FFFFFF" d="M42.609,107.213c0.101,0.103,0.101,0.453,0,0.556c-0.555-0.017-1.194-0.033-1.866-0.033
		c-0.672,0-1.327,0.018-1.881,0.033c-0.101-0.103-0.101-0.453,0-0.556c1.024-0.084,1.209-0.135,1.209-1.528v-3.275
		c0-0.958-0.176-1.059-1.092-1.145c-0.033-0.103-0.067-0.367-0.033-0.471c1.159-0.152,1.823-0.304,2.302-0.484
		c0.134,0,0.218,0.049,0.218,0.116c0,0-0.067,1.074-0.067,1.91v3.349C41.399,107.079,41.584,107.147,42.609,107.213z M40.744,96.864
		c0.454,0,0.807,0.471,0.807,0.873c0,0.354-0.403,0.807-0.874,0.807c-0.403,0-0.807-0.438-0.807-0.875
		C39.871,97.269,40.341,96.864,40.744,96.864z"/>
	<path fill="#FFFFFF" d="M44.356,98.342c0-1.409-0.202-1.325-1.075-1.377c-0.101-0.103-0.134-0.368-0.101-0.504
		c0.672-0.051,1.932-0.285,2.352-0.453c0.151,0,0.218,0.052,0.218,0.168c0,0-0.067,0.671-0.067,1.765v5.86
		c0.318-0.045,0.77-0.241,1.143-0.518c0.432-0.32,0.958-0.892,1.344-1.378c0.156-0.196,0.554-0.79-0.386-0.856
		c-0.101-0.103-0.101-0.454,0-0.555c0.386,0.016,1.008,0.032,1.647,0.032c0.605,0,1.075-0.017,1.461-0.032
		c0.101,0.101,0.101,0.452,0,0.555c-0.672,0.066-1.26,0.201-1.764,0.738l-1.479,1.528c-0.067,0.066-0.067,0.104-0.067,0.168
		c0,0.084,0.058,0.16,0.118,0.235l2.218,2.789c0.449,0.563,0.874,0.638,1.445,0.706c0.101,0.102,0.101,0.453,0,0.555
		c-0.336-0.018-0.857-0.035-1.377-0.035c-0.336,0-0.706,0.019-1.042,0.035c-0.05,0-0.062-0.035-0.067-0.084
		c-0.022-0.197-0.211-0.514-0.706-1.177l-1.226-1.647c-0.199-0.27-0.353-0.422-0.538-0.545c-0.163-0.059-0.4-0.084-0.722-0.092
		v1.459c0,1.396,0.185,1.463,0.874,1.529c0.101,0.102,0.101,0.453,0,0.555c-0.387-0.016-0.941-0.033-1.529-0.033
		c-0.672,0-1.243,0.019-1.798,0.033c-0.101-0.102-0.101-0.453,0-0.555c0.941-0.066,1.125-0.135,1.125-1.529L44.356,98.342
		L44.356,98.342z"/>
	<path fill="#FFFFFF" d="M55.764,107.213c0.101,0.103,0.101,0.453,0,0.556c-0.555-0.017-1.194-0.033-1.866-0.033
		s-1.327,0.018-1.881,0.033c-0.101-0.103-0.101-0.453,0-0.556c1.024-0.084,1.209-0.135,1.209-1.528v-3.275
		c0-0.958-0.176-1.059-1.092-1.145c-0.034-0.103-0.067-0.367-0.034-0.471c1.159-0.152,1.823-0.304,2.302-0.484
		c0.134,0,0.218,0.049,0.218,0.116c0,0-0.067,1.074-0.067,1.91v3.349C54.553,107.079,54.739,107.147,55.764,107.213z M53.898,96.864
		c0.454,0,0.807,0.471,0.807,0.873c0,0.354-0.403,0.807-0.874,0.807c-0.403,0-0.806-0.438-0.806-0.875
		C53.024,97.269,53.495,96.864,53.898,96.864z"/>
	<path fill="#FFFFFF" d="M56.687,102.526c0-1.752,0.665-3.397,1.781-4.42c0.992-0.906,2.185-1.426,3.613-1.426
		c2.066,0,2.822,0.672,3.679,0.754c0.168,0.926,0.286,1.731,0.37,2.605c-0.19,0.102-0.353,0.152-0.555,0.084
		c-0.437-1.443-1.361-2.823-3.679-2.823c-0.874,0-1.848,0.474-2.682,1.497c-0.613,0.756-0.998,1.96-0.998,3.411
		c0,2.453,1.569,5.006,3.831,5.006c1.562,0,2.705-0.521,3.897-1.83c0.185,0,0.303,0.101,0.387,0.25
		c-1.143,1.495-2.638,2.269-4.268,2.269C58.451,107.903,56.687,105.447,56.687,102.526z"/>
	<path fill="#FFFFFF" d="M68.514,98.342c0-1.26-0.102-1.311-1.075-1.377c-0.101-0.103-0.135-0.368-0.101-0.504
		c0.672-0.051,1.932-0.285,2.352-0.453c0.151,0,0.219,0.052,0.219,0.168c0,0-0.067,0.671-0.067,1.765v7.746
		c0,1.395,0.185,1.479,1.21,1.528c0.102,0.101,0.102,0.453,0,0.554c-0.555-0.017-1.193-0.033-1.865-0.033s-1.292,0.018-1.88,0.033
		c-0.101-0.101-0.101-0.453,0-0.554c1.025-0.051,1.208-0.135,1.208-1.528V98.342L68.514,98.342z"/>
	<path fill="#FFFFFF" d="M76.242,106.929l-0.336,0.269c-0.739,0.571-1.245,0.706-1.83,0.706c-1.178,0-2.115-0.438-2.115-1.814
		c0-1.143,1.158-2.033,2.773-2.436l1.441-0.354c0.049-0.014,0.104-0.083,0.104-0.2c0-1.898-0.791-2.185-1.361-2.185
		c-0.639,0-1.344,0.187-1.344,0.707c0,0.185,0.016,0.284,0.033,0.335c0.033,0.066,0.051,0.186,0.051,0.303
		c0,0.219-0.305,0.571-0.789,0.571c-0.389,0-0.59-0.203-0.59-0.604c0-0.957,1.395-1.865,2.772-1.865
		c1.228,0,2.537,0.453,2.537,2.841v2.47c0,0.771,0.017,1.428,0.504,1.428c0.214,0,0.496-0.164,0.622-0.271
		c0.189,0.106,0.258,0.249,0.285,0.454c-0.348,0.336-0.952,0.621-1.596,0.621c-0.848,0-1.025-0.452-1.125-0.975H76.242
		L76.242,106.929z M74.948,104.172c-1.243,0.318-1.595,1.093-1.595,1.849c0,0.521,0.369,1.192,1.209,1.192
		c0.471,0,1.041-0.387,1.479-0.739c0.135-0.103,0.234-0.22,0.234-0.437v-2.218L74.948,104.172z"/>
	<path fill="#FFFFFF" d="M80.357,105.399c0.102,0.42,0.287,1.16,0.656,1.545c0.174,0.181,0.538,0.402,1.192,0.402
		c0.623,0,1.429-0.353,1.429-1.176c0-0.722-0.32-1.074-1.712-1.648c-1.296-0.537-1.85-1.059-1.85-2.283
		c0-1.076,1.125-1.883,2.366-1.883c0.875,0,1.682,0.235,2.203,0.319c-0.016,0.556-0.049,1.177-0.103,1.781
		c-0.101,0.101-0.437,0.117-0.537,0.017c-0.218-1.43-1.192-1.562-1.563-1.562c-0.567,0-1.176,0.389-1.176,1.076
		c0,0.922,0.67,1.184,1.682,1.56c1.143,0.423,1.966,1.091,1.966,2.237c0,1.662-1.729,2.115-2.669,2.115
		c-0.623,0-1.075-0.066-1.53-0.186c-0.118-0.033-0.219-0.033-0.336-0.033c-0.084,0-0.251,0.016-0.42,0.049
		c0-0.705-0.052-1.494-0.118-2.316C79.938,105.315,80.257,105.297,80.357,105.399z"/>
	<path fill="#FFFFFF" d="M86.91,105.399c0.102,0.42,0.285,1.16,0.656,1.545c0.174,0.181,0.539,0.402,1.192,0.402
		c0.621,0,1.429-0.353,1.429-1.176c0-0.722-0.318-1.074-1.713-1.648c-1.295-0.537-1.851-1.059-1.851-2.283
		c0-1.076,1.126-1.883,2.37-1.883c0.874,0,1.679,0.235,2.201,0.319c-0.016,0.556-0.051,1.177-0.103,1.781
		c-0.101,0.101-0.438,0.117-0.538,0.017c-0.218-1.43-1.191-1.562-1.562-1.562c-0.571,0-1.177,0.389-1.177,1.076
		c0,0.922,0.668,1.184,1.68,1.56c1.143,0.423,1.967,1.091,1.967,2.237c0,1.662-1.73,2.115-2.671,2.115
		c-0.622,0-1.076-0.066-1.528-0.186c-0.119-0.033-0.219-0.033-0.336-0.033c-0.086,0-0.252,0.016-0.421,0.049
		c0-0.705-0.05-1.494-0.118-2.316C86.49,105.315,86.811,105.297,86.91,105.399z"/>
	<path fill="#FFFFFF" d="M96.385,107.213c0.102,0.103,0.102,0.453,0,0.556c-0.555-0.017-1.193-0.033-1.865-0.033
		s-1.326,0.018-1.881,0.033c-0.102-0.103-0.102-0.453,0-0.556c1.024-0.084,1.211-0.135,1.211-1.528v-3.275
		c0-0.958-0.179-1.059-1.095-1.145c-0.032-0.103-0.065-0.367-0.032-0.471c1.158-0.152,1.822-0.304,2.303-0.484
		c0.135,0,0.218,0.049,0.218,0.116c0,0-0.067,1.074-0.067,1.91v3.349C95.175,107.079,95.359,107.147,96.385,107.213z M94.521,96.864
		c0.453,0,0.807,0.471,0.807,0.873c0,0.354-0.404,0.807-0.874,0.807c-0.403,0-0.808-0.438-0.808-0.875
		C93.646,97.269,94.117,96.864,94.521,96.864z"/>
	<path fill="#FFFFFF" d="M101.04,107.213c0.101,0.103,0.101,0.453,0,0.556c-0.589-0.017-1.396-0.033-2.067-0.033
		s-1.26,0.018-1.848,0.033c-0.102-0.103-0.102-0.453,0-0.556c0.907-0.065,1.176-0.135,1.176-1.528v-4.502h-1.158
		c-0.066,0-0.084-0.019-0.084-0.103v-0.22c0-0.133,0.084-0.336,0.387-0.336h0.859v-0.67c0-2.623,1.562-3.85,2.973-3.85
		c0.64,0,1.076,0.051,1.514,0.354c0.354,0.27,0.537,0.57,0.537,0.856c0,0.337-0.403,0.688-0.688,0.688
		c-0.354,0-0.539-0.234-0.673-0.537c-0.235-0.588-0.504-0.789-1.008-0.789c-0.556,0-1.326,0.4-1.326,2.988v0.957h1.814
		c0.084,0,0.133,0.035,0.133,0.102v0.336c0,0.152-0.235,0.219-0.386,0.219h-1.562v4.504
		C99.628,107.079,99.729,107.147,101.04,107.213z"/>
	<path fill="#FFFFFF" d="M103.693,111.631c-0.453,0-0.789-0.269-0.789-0.621c0-0.218,0.252-0.723,0.738-0.723
		c0.188,0,0.254,0.051,0.487,0.051c0.42,0,0.656-0.149,0.841-0.485c0.252-0.521,0.454-0.986,0.653-1.547
		c0.168-0.471-0.088-1.238-0.233-1.578l-1.9-4.418c-0.44-1.025-0.659-1.179-1.326-1.261c-0.1-0.103-0.1-0.454,0-0.556
		c0.336,0.017,0.79,0.033,1.361,0.033c0.604,0,1.276-0.016,1.896-0.033c0.102,0.102,0.102,0.453,0,0.556
		c-0.939,0.072-0.854,0.384-0.551,1.093l1.49,3.493c0.144,0.334,0.283,0.287,0.4,0.017l1.668-3.848
		c0.269-0.604-0.277-0.705-0.808-0.757c-0.101-0.103-0.101-0.453,0-0.554c0.505,0.016,1.024,0.031,1.528,0.031
		c0.471,0,0.858-0.016,1.192-0.031c0.104,0.101,0.104,0.451,0,0.554c-0.788,0.099-1.028,0.365-1.358,1.076
		c-0.879,1.888-1.629,3.61-2.977,6.854c-0.206,0.496-0.425,0.978-0.688,1.443C104.718,111.499,104.046,111.631,103.693,111.631z"/>
</g>
</svg>
