<?xml version="1.0" encoding="utf-8"?>
<!-- Generator: Adobe Illustrator 16.0.0, SVG Export Plug-In . SVG Version: 6.00 Build 0)  -->
<!DOCTYPE svg PUBLIC "-//W3C//DTD SVG 1.1//EN" "http://www.w3.org/Graphics/SVG/1.1/DTD/svg11.dtd">
<svg version="1.1" id="Layer_1" xmlns="http://www.w3.org/2000/svg" xmlns:xlink="http://www.w3.org/1999/xlink" x="0px" y="0px"
	 width="65px" height="65px" viewBox="-12.5 -12.5 65 65" enable-background="new -12.5 -12.5 65 65" xml:space="preserve">
<path fill="#FFFFFF" d="M20.4,30.3c0.5,0,1,0,1.7,0.1c3.3,0.5,5.1,1.7,5.2,3.6c0.1,1.1-0.5,1.5-1,1.8c-0.6,0.4-1,0.7-0.8,1.8
	c0.2,0.8,2,1.3,4.6,1.3c3.1,0,6-0.7,6.7-1.6c1.7-2.1,1.6-10.5,0.8-12.6c-0.1-0.3-0.2-0.4-0.3-0.4c-0.2,0-0.6,0.4-0.9,0.9
	c-0.7,0.8-1.6,1.9-2.8,1.7c-2.4-0.4-2.7-1.8-2.8-4.1v-0.1c-0.1-2.3-0.2-4.1,2.1-4.7c0.2,0,0.4-0.1,0.5-0.1c0.8,0,1.5,0.4,2,0.8
	c0.4,0.3,0.8,0.6,1.2,0.6c0.2,0,0.5-0.1,1-0.8c1.5-2.4,1.7-7.3,0.3-9C37.6,9.2,36.8,9,35.4,9c-0.9,0-2,0.1-3.1,0.1
	c-1.1,0.1-2.2,0.1-3.2,0.1c-1.9,0-2.9-0.3-3.1-0.9c-0.4-1,0-1.5,0.5-2.1s1.1-1.4,1-2.9c-0.1-2.1-1.7-4.3-5-4.3h-0.1
	c-1.5,0-2.7,0.5-3.6,1.4c-0.8,0.8-1.1,1.9-1.1,3c0.1,1.1,0.6,1.7,1.2,2.3c0.6,0.7,1.2,1.3,0.9,2.5c-0.1,0.7-1,1-2.5,1
	c-2.8,0-7.3-1-8.4-1.3c0.3,1.6,1.6,9.2,1,10.7c-0.2,0.4-0.5,0.5-0.7,0.5l0,0c-0.6,0-1.4-0.7-2.3-1.5c-0.7-0.6-1.5-1.4-2-1.4
	c-1.5-0.1-2.8,1.3-3.2,3.5L1.6,20c-0.5,2.3-0.9,4.4,1.1,5.4c0.3,0.1,0.5,0.2,0.8,0.2c0.5,0,0.8-0.3,1.2-0.6s0.8-0.7,1.4-0.7
	c0.3,0,0.7,0.1,1.1,0.4c2.4,1.4,0.3,11.2,0,12.7c1,0.2,5.2,0.9,8.2,0.9c2.6,0,3.1-0.5,3.2-0.8c0.3-0.9-0.2-1.6-0.8-2.3
	c-0.6-0.8-1.3-1.6-0.8-2.8C17.6,31,18.6,30.3,20.4,30.3z"/>
</svg>
