<?xml version="1.0" encoding="utf-8"?>
<!-- Generator: Adobe Illustrator 16.0.0, SVG Export Plug-In . SVG Version: 6.00 Build 0)  -->
<!DOCTYPE svg PUBLIC "-//W3C//DTD SVG 1.1//EN" "http://www.w3.org/Graphics/SVG/1.1/DTD/svg11.dtd">
<svg version="1.1" id="Layer_1" xmlns="http://www.w3.org/2000/svg" xmlns:xlink="http://www.w3.org/1999/xlink" x="0px" y="0px"
	 width="21px" height="20px" viewBox="0 0 21 20" enable-background="new 0 0 21 20" xml:space="preserve">
<path fill="#E5E5E5" d="M20.5,7.9c0,0.2-0.1,0.4-0.3,0.6l-4.4,4.2l1,6.1c0,0,0,0.101,0,0.2c0,0.2,0,0.3-0.1,0.4
	C16.6,19.5,16.5,19.6,16.3,19.6c-0.1,0-0.3,0-0.5-0.1l-5.4-2.9L5,19.5c-0.2,0.1-0.3,0.1-0.5,0.1S4.2,19.5,4.1,19.4
	C4,19.3,4,19.2,4,19c0,0,0-0.1,0-0.2l1-6.1L0.8,8.5C0.6,8.3,0.5,8.1,0.5,7.9c0-0.3,0.2-0.5,0.7-0.5l6-0.9L9.9,1
	c0.2-0.3,0.4-0.5,0.6-0.5s0.4,0.2,0.6,0.5l2.7,5.5l6,0.9C20.3,7.4,20.5,7.6,20.5,7.9"/>
<g id="Layer_1_1_" xmlns:cc="http://creativecommons.org/ns#" xmlns:rdf="http://www.w3.org/1999/02/22-rdf-syntax-ns#" xmlns:dc="http://purl.org/dc/elements/1.1/">
	<path fill="#FFE600" d="M10.5,16.6l-5.4,2.9c-0.2,0.1-0.3,0.1-0.5,0.1c-0.2,0-0.3-0.1-0.4-0.199C4.1,19.3,4.1,19.2,4.1,19
		c0,0,0-0.1,0-0.2l1-6.1L0.8,8.5C0.6,8.3,0.5,8.1,0.5,7.9c0-0.3,0.2-0.5,0.7-0.5l6-0.9L9.9,1c0.2-0.3,0.4-0.5,0.6-0.5V16.6z"/>
</g>
</svg>
