<?xml version="1.0" encoding="utf-8"?>
<!-- Generator: Adobe Illustrator 16.0.0, SVG Export Plug-In . SVG Version: 6.00 Build 0)  -->
<!DOCTYPE svg PUBLIC "-//W3C//DTD SVG 1.1//EN" "http://www.w3.org/Graphics/SVG/1.1/DTD/svg11.dtd">
<svg version="1.1"
	 id="Layer_1" xmlns:cc="http://creativecommons.org/ns#" xmlns:rdf="http://www.w3.org/1999/02/22-rdf-syntax-ns#" xmlns:dc="http://purl.org/dc/elements/1.1/"
	 xmlns="http://www.w3.org/2000/svg" xmlns:xlink="http://www.w3.org/1999/xlink" x="0px" y="0px" width="21px" height="20.042px"
	 viewBox="0 0 21 20.042" enable-background="new 0 0 21 20.042" xml:space="preserve">
<path fill="#FFE600" d="M20.5,7.872c0,0.2-0.104,0.4-0.312,0.6l-4.358,4.201l1.028,6.1c0.013,0,0.017,0.102,0.017,0.201
	c0,0.199-0.044,0.299-0.134,0.398c-0.078,0.102-0.198,0.198-0.359,0.198c-0.148,0-0.312,0-0.479-0.103l-5.399-2.897L5.105,19.47
	c-0.176,0.102-0.337,0.102-0.481,0.102c-0.168,0-0.296-0.102-0.385-0.199c-0.08-0.103-0.12-0.199-0.12-0.397
	c0,0,0.008-0.103,0.024-0.201l1.034-6.101L0.801,8.472c-0.2-0.2-0.3-0.4-0.3-0.6c0-0.3,0.225-0.5,0.673-0.5l6.033-0.9l2.705-5.5
	c0.152-0.3,0.35-0.5,0.589-0.5c0.24,0,0.437,0.2,0.589,0.5l2.704,5.5l6.034,0.9C20.275,7.372,20.5,7.572,20.5,7.872"/>
</svg>
